<?xml version="1.0" encoding="utf-8"?>
<!-- Generator: Adobe Illustrator 26.0.3, SVG Export Plug-In . SVG Version: 6.00 Build 0)  -->
<svg version="1.1" id="Layer_1" xmlns="http://www.w3.org/2000/svg" xmlns:xlink="http://www.w3.org/1999/xlink" x="0px" y="0px"
	 viewBox="0 0 1024 512" style="enable-background:new 0 0 1024 512;" xml:space="preserve">
<style type="text/css">
	.st0{fill:#FFFFFF;}
</style>
<path class="st0" d="M817.14,350.03c20.6-0.07,46.44-6.18,66.83-13.39l-12.19,55.75c-25.58,5.41-54.3,10.03-88.03,10.18
	c-105.42,0.49-150.79-57.16-150.94-116.99c-0.24-80.1,80.64-160.04,210.92-158.11c27.64,0.4,53.96,5.67,71.67,11.82l-17.23,65.76
	h-8.74c-10.77-14.99-27.14-26.36-59.43-26.36c-66.03,0-106.88,38.47-106.75,89.74C723.39,314.84,761.01,350.19,817.14,350.03
	 M436.22,130l-4.12,17.43c0,0,24.98,2.91,17.32,29.43l-56.8,219.79l113.56,0.21l4.27-18.89c0,0-21.23-5.47-15.72-26.31
	c0.44-1.92,16.67-65.24,16.67-65.24l52.06-0.09c25.92,0.14,34.49,14.45,34.49,14.45l15.1-65.27h-87.71l13.05-51.27l76.2-0.09
	c14.02,0,23.84,10.01,23.84,17.31h8.62L663.87,130L436.22,130z M350.1,357.4c-6.71-7.66-65.16-104.65-65.16-104.65l106.87-91.04
	c18-16,30.78-14.3,30.78-14.3l4.18-17.54l-132.94,0.11l-4.08,17.43c9.03,0.65,21.66,9.25,11.32,19.43
	c-1.28,1.28-106.78,87.03-106.78,87.03l22.7-87.55c4.7-16.91,21.76-18.92,21.76-18.92l4.16-17.49L115.99,130l-4.07,17.47
	c6.05,1.62,23.36,5.16,17.33,29.42c-42.35,162.99-37.44,146.77-40.3,155.72c-11.59,47.07-30.23,44.68-37.01,45.17l-4.38,18.86
	h132.72l4.47-19.1c0,0-21.09-4.51-17.05-20.65c3.99-15.99,20.65-80.14,20.65-80.14c22.97,39.33,28.35,44.17,56.04,84.76
	c27.7,40.59,57.35,35.22,135.83,35.25l4.36-18.78C367.85,378.06,356.82,365.06,350.1,357.4"/>
</svg>
